<svg width="372" height="86" viewBox="0 0 372 86" fill="none" xmlns="http://www.w3.org/2000/svg">
<path d="M85 48.1944H92.2251C92.9334 51.9722 96.2861 53.8611 100.631 53.8611C104.55 53.8611 108.517 52.6333 108.517 49.9417C108.517 43.3778 86.3225 48.4778 86.3225 35.9167C86.3225 29.5417 92.2251 26 99.6391 26C108.045 26 113.806 30.675 114.608 37.8056H107.336C106.628 34.5 104.55 32.1389 99.0723 32.1389C95.8612 32.1389 93.4057 33.65 93.4057 35.4917C93.4057 41.3 115.6 37.2389 115.6 49.9417C115.6 56.6 108.847 60 101.575 60C91.8946 60 85.8502 56.1278 85 48.1944Z" fill="black"/>
<path d="M122.42 50.3194V39.2221H119.021V33.5555H122.42V26.4722H129.031V33.5555H139.042V39.2221H129.032V50.1305C129.032 52.6805 130.59 53.3888 132.384 53.3888H139.042V59.5277H130.92C126.718 59.5277 122.42 57.686 122.42 50.3194Z" fill="black"/>
<path d="M141.377 46.541C141.377 37.7577 145.863 33.0826 154.977 33.0826C159.652 33.0826 162.344 34.3104 163.855 36.5771V33.5549H170.466V59.5271H163.855V56.4577C162.297 58.7715 159.605 59.9993 154.977 59.9993C145.533 59.9993 141.377 54.9466 141.377 46.541ZM155.922 53.6243C160.927 53.6243 163.855 51.1688 163.855 46.541C163.855 42.1021 161.069 39.4577 155.922 39.4577C150.916 39.4577 147.988 41.9132 147.988 46.541C147.988 50.9799 150.774 53.6243 155.922 53.6243Z" fill="black"/>
<path d="M188.608 39.4578C183.602 39.4578 180.675 41.9134 180.675 46.5411C180.675 50.98 183.461 53.6245 188.608 53.6245C192.48 53.6245 195.125 52.1606 196.116 49.3272H202.963C201.877 56.3161 196.683 59.9995 188.608 59.9995C179.163 59.9995 174.063 54.9467 174.063 46.5411C174.063 37.7578 179.494 33.0828 188.608 33.0828C196.919 33.0828 201.877 37.0022 202.916 43.6605H196.069C195.077 40.9689 192.527 39.4578 188.608 39.4578Z" fill="black"/>
<path d="M213.219 26.4722V44.2278L222.617 33.5555H230.644L220.114 45.3139L231.589 59.5278H223.561L215.911 49.9416L213.219 52.9639V59.5278H206.608V26.4722H213.219Z" fill="black"/>
<path d="M241.156 26.472V59.5275H234.545V26.472H241.156Z" fill="black"/>
<path d="M245.002 46.5411C245.002 37.7578 249.488 33.0828 258.602 33.0828C263.277 33.0828 265.969 34.3106 267.48 36.5772V33.555H274.091V59.5272H267.48V56.4578C265.921 58.7717 263.23 59.9994 258.602 59.9994C249.158 59.9995 245.002 54.9467 245.002 46.5411ZM259.546 53.6245C264.552 53.6245 267.48 51.1689 267.48 46.5411C267.48 42.1022 264.694 39.4578 259.546 39.4578C254.541 39.4578 251.613 41.9134 251.613 46.5411C251.613 50.98 254.399 53.6245 259.546 53.6245Z" fill="black"/>
<path d="M292.351 39.4577C288.148 39.4577 285.22 41.5355 285.22 45.3605V59.5271H278.609V33.5549H285.22V36.4826C286.779 34.2632 289.423 33.0826 293.768 33.0826C300.945 33.0826 306.093 37.7104 306.093 45.3605V59.5271H299.482V45.3605C299.482 41.7243 296.696 39.4577 292.351 39.4577Z" fill="black"/>
<path d="M324.227 39.4577C319.222 39.4577 316.294 41.9132 316.294 46.541C316.294 50.9799 319.08 53.6243 324.227 53.6243C328.099 53.6243 330.744 52.1605 331.736 49.3271H338.583C337.497 56.316 332.302 59.9993 324.227 59.9993C314.783 59.9993 309.683 54.9466 309.683 46.541C309.683 37.7577 315.113 33.0826 324.227 33.0826C332.538 33.0826 337.497 37.0021 338.536 43.6604H331.688C330.697 40.9688 328.147 39.4577 324.227 39.4577Z" fill="black"/>
<path d="M341.95 46.5414C341.95 37.758 347.381 33.083 356.495 33.083C365.939 33.083 371.039 38.1358 371.039 46.5414V47.533H348.609C348.986 51.358 351.725 53.6247 356.495 53.6247C359.942 53.6247 362.397 52.4914 363.578 50.2247H370.709C369.292 56.5997 364.192 59.9997 356.495 59.9997C347.05 59.9997 341.95 54.9469 341.95 46.5414ZM363.531 42.7164C362.303 40.6386 359.942 39.458 356.495 39.458C353.142 39.458 350.686 40.5914 349.459 42.7164H363.531Z" fill="black"/>
<g clip-path="url(#clip0_40_2)">
<g filter="url(#filter0_d_40_2)">
<path d="M0.261719 64.4678V46.1893H6.47623V60.8799L37.5565 78.8241L68.6368 60.8799V46.1893H74.8513V64.4678L37.5565 86L0.261719 64.4678Z" fill="white"/>
</g>
<g filter="url(#filter1_d_40_2)">
<path d="M62.4638 14.316L58.7855 19.3682L68.6363 25.0555V39.7461H74.8508V21.4676L62.4638 14.316Z" fill="white"/>
</g>
<g filter="url(#filter2_d_40_2)">
<path d="M56.7968 11.0442L37.5561 -0.0643921L0.261292 21.4678V39.7463H6.47581V25.0557L37.5561 7.11149L53.1185 16.0964L56.7968 11.0442Z" fill="white"/>
</g>
<g filter="url(#filter3_d_40_2)">
<path d="M37.4957 14L11 29.3716V40.9218L24.0298 48.4788L50.9702 32.8496L54.9201 35.1424L27.9798 50.7631L37.4957 56.2849L64 40.9218V29.3716L50.9702 21.8146L24.0298 37.4353L20.0799 35.1424L47.0202 19.5218L37.4957 14Z" fill="white"/>
</g>
<path d="M37.4957 61.4545L11.4275 46.3405V56.3879L37.4957 71.5105V61.4545Z" fill="white"/>
<g filter="url(#filter4_d_40_2)">
<path d="M65 45.133L37.4957 60.965L11 45.5934V56.6369L37.4957 72L65 56.1723V45.133Z" fill="white"/>
</g>
</g>
<defs>
<filter id="filter0_d_40_2" x="0.261719" y="45.3893" width="74.5896" height="40.6107" filterUnits="userSpaceOnUse" color-interpolation-filters="sRGB">
<feFlood flood-opacity="0" result="BackgroundImageFix"/>
<feColorMatrix in="SourceAlpha" type="matrix" values="0 0 0 0 0 0 0 0 0 0 0 0 0 0 0 0 0 0 127 0" result="hardAlpha"/>
<feOffset dy="-0.8"/>
<feComposite in2="hardAlpha" operator="out"/>
<feColorMatrix type="matrix" values="0 0 0 0 0 0 0 0 0 0 0 0 0 0 0 0 0 0 0.15 0"/>
<feBlend mode="normal" in2="BackgroundImageFix" result="effect1_dropShadow_40_2"/>
<feBlend mode="normal" in="SourceGraphic" in2="effect1_dropShadow_40_2" result="shape"/>
</filter>
<filter id="filter1_d_40_2" x="58.7855" y="14.316" width="16.0652" height="26.2301" filterUnits="userSpaceOnUse" color-interpolation-filters="sRGB">
<feFlood flood-opacity="0" result="BackgroundImageFix"/>
<feColorMatrix in="SourceAlpha" type="matrix" values="0 0 0 0 0 0 0 0 0 0 0 0 0 0 0 0 0 0 127 0" result="hardAlpha"/>
<feOffset dy="0.8"/>
<feComposite in2="hardAlpha" operator="out"/>
<feColorMatrix type="matrix" values="0 0 0 0 0 0 0 0 0 0 0 0 0 0 0 0 0 0 0.15 0"/>
<feBlend mode="normal" in2="BackgroundImageFix" result="effect1_dropShadow_40_2"/>
<feBlend mode="normal" in="SourceGraphic" in2="effect1_dropShadow_40_2" result="shape"/>
</filter>
<filter id="filter2_d_40_2" x="0.261292" y="-0.0643921" width="56.5355" height="40.6107" filterUnits="userSpaceOnUse" color-interpolation-filters="sRGB">
<feFlood flood-opacity="0" result="BackgroundImageFix"/>
<feColorMatrix in="SourceAlpha" type="matrix" values="0 0 0 0 0 0 0 0 0 0 0 0 0 0 0 0 0 0 127 0" result="hardAlpha"/>
<feOffset dy="0.8"/>
<feComposite in2="hardAlpha" operator="out"/>
<feColorMatrix type="matrix" values="0 0 0 0 0 0 0 0 0 0 0 0 0 0 0 0 0 0 0.15 0"/>
<feBlend mode="normal" in2="BackgroundImageFix" result="effect1_dropShadow_40_2"/>
<feBlend mode="normal" in="SourceGraphic" in2="effect1_dropShadow_40_2" result="shape"/>
</filter>
<filter id="filter3_d_40_2" x="11" y="14" width="53" height="43.6849" filterUnits="userSpaceOnUse" color-interpolation-filters="sRGB">
<feFlood flood-opacity="0" result="BackgroundImageFix"/>
<feColorMatrix in="SourceAlpha" type="matrix" values="0 0 0 0 0 0 0 0 0 0 0 0 0 0 0 0 0 0 127 0" result="hardAlpha"/>
<feOffset dy="1.4"/>
<feComposite in2="hardAlpha" operator="out"/>
<feColorMatrix type="matrix" values="0 0 0 0 0 0 0 0 0 0 0 0 0 0 0 0 0 0 0.15 0"/>
<feBlend mode="normal" in2="BackgroundImageFix" result="effect1_dropShadow_40_2"/>
<feBlend mode="normal" in="SourceGraphic" in2="effect1_dropShadow_40_2" result="shape"/>
</filter>
<filter id="filter4_d_40_2" x="11" y="44.333" width="54" height="27.667" filterUnits="userSpaceOnUse" color-interpolation-filters="sRGB">
<feFlood flood-opacity="0" result="BackgroundImageFix"/>
<feColorMatrix in="SourceAlpha" type="matrix" values="0 0 0 0 0 0 0 0 0 0 0 0 0 0 0 0 0 0 127 0" result="hardAlpha"/>
<feOffset dy="-0.8"/>
<feComposite in2="hardAlpha" operator="out"/>
<feColorMatrix type="matrix" values="0 0 0 0 0 0 0 0 0 0 0 0 0 0 0 0 0 0 0.15 0"/>
<feBlend mode="normal" in2="BackgroundImageFix" result="effect1_dropShadow_40_2"/>
<feBlend mode="normal" in="SourceGraphic" in2="effect1_dropShadow_40_2" result="shape"/>
</filter>
<clipPath id="clip0_40_2">
<rect width="75.1139" height="86" fill="white"/>
</clipPath>
</defs>
</svg> 